<svg width="32" height="32" viewBox="0 0 32 32" fill="none" xmlns="http://www.w3.org/2000/svg"> <defs> <!-- Fashion gradient --> <linearGradient id="fashionGradient" x1="0%" y1="0%" x2="100%" y2="100%"> <stop offset="0%" style="stop-color:#ffd700"/> <stop offset="33%" style="stop-color:#ff6b9d"/> <stop offset="66%" style="stop-color:#9333ea"/> <stop offset="100%" style="stop-color:#00d4ff"/> </linearGradient> <!-- Gold gradient for A --> <linearGradient id="goldGradient" x1="0%" y1="0%" x2="100%" y2="100%"> <stop offset="0%" style="stop-color:#ffd700"/> <stop offset="100%" style="stop-color:#ff6b9d"/> </linearGradient> <!-- Blue gradient for B --> <linearGradient id="blueGradient" x1="0%" y1="0%" x2="100%" y2="100%"> <stop offset="0%" style="stop-color:#9333ea"/> <stop offset="100%" style="stop-color:#00d4ff"/> </linearGradient> <!-- Subtle glow --> <filter id="glow" x="-20%" y="-20%" width="140%" height="140%"> <feGaussianBlur stdDeviation="1" result="coloredBlur"/> <feMerge> <feMergeNode in="coloredBlur"/> <feMergeNode in="SourceGraphic"/> </feMerge> </filter> </defs> <!-- Background with subtle border --> <rect x="1" y="1" width="30" height="30" rx="6" fill="#0a0a0f"/> <rect x="1" y="1" width="30" height="30" rx="6" fill="none" stroke="url(#fashionGradient)" stroke-width="0.5" opacity="0.6"/> <!-- Letter A (geometric, left side) --> <g filter="url(#glow)"> <!-- A triangle shape --> <path d="M6 24 L11 8 L13 8 L18 24 M9 19 L15 19" stroke="url(#goldGradient)" stroke-width="1.8" fill="none" stroke-linecap="round" stroke-linejoin="round"/> </g> <!-- Letter B (geometric, right side) --> <g filter="url(#glow)"> <!-- B vertical line --> <path d="M18 8 L18 24" stroke="url(#blueGradient)" stroke-width="1.8" fill="none" stroke-linecap="round"/> <!-- B top bump --> <path d="M18 8 L22 8 Q25 8 25 11.5 Q25 15 22 15 L18 15" stroke="url(#blueGradient)" stroke-width="1.8" fill="none" stroke-linecap="round"/> <!-- B bottom bump --> <path d="M18 15 L23 15 Q26 15 26 19.5 Q26 24 23 24 L18 24" stroke="url(#blueGradient)" stroke-width="1.8" fill="none" stroke-linecap="round"/> </g> <!-- Connecting diamond element --> <g opacity="0.8"> <circle cx="16" cy="16" r="1.5" fill="none" stroke="#ffd700" stroke-width="0.8" opacity="0.6"/> <circle cx="16" cy="16" r="0.5" fill="#ff6b9d"/> </g> <!-- Corner accent elements --> <circle cx="6" cy="6" r="0.8" fill="#ffd700" opacity="0.4"/> <circle cx="26" cy="6" r="0.8" fill="#00d4ff" opacity="0.4"/> <circle cx="6" cy="26" r="0.8" fill="#06ffa5" opacity="0.4"/> <circle cx="26" cy="26" r="0.8" fill="#ff6b9d" opacity="0.4"/> </svg>